<?xml version="1.0" encoding="UTF-8"?>
<svg id="Layer_1" xmlns="http://www.w3.org/2000/svg" version="1.1" viewBox="0 0 2500 2500">
  <!-- Generator: Adobe Illustrator 30.1.0, SVG Export Plug-In . SVG Version: 2.1.1 Build 136)  -->
  <defs>
    <style>
      .st0 {
        fill: #ff7262;
      }

      .st1 {
        fill: #a259ff;
      }

      .st2 {
        fill: #1abcfe;
      }

      .st3 {
        fill: #f24e1e;
      }

      .st4 {
        fill: #0acf83;
      }
    </style>
  </defs>
  <path id="path0_fill" class="st4" d="M833.3,2500c230,0,416.7-186.7,416.7-416.7v-416.7h-416.7c-230,0-416.7,186.7-416.7,416.7s186.7,416.7,416.7,416.7Z"/>
  <path id="path1_fill" class="st1" d="M416.7,1250c0-230,186.7-416.7,416.7-416.7h416.7v833.3h-416.7c-230,0-416.7-186.7-416.7-416.7Z"/>
  <path id="path1_fill1" data-name="path1_fill" class="st3" d="M416.7,416.7C416.7,186.7,603.3,0,833.3,0h416.7v833.3h-416.7c-230,0-416.7-186.7-416.7-416.7Z"/>
  <path id="path2_fill" class="st0" d="M1250,0h416.7c230,0,416.7,186.7,416.7,416.7s-186.7,416.7-416.7,416.7h-416.7V0Z"/>
  <path id="path3_fill" class="st2" d="M2083.3,1250c0,230-186.7,416.7-416.7,416.7s-416.7-186.7-416.7-416.7,186.7-416.7,416.7-416.7,416.7,186.7,416.7,416.7Z"/>
</svg>