<?xml version="1.0" encoding="UTF-8"?>
<svg id="Layer_1" xmlns="http://www.w3.org/2000/svg" version="1.1" viewBox="0 0 150.3 170.7">
  <!-- Generator: Adobe Illustrator 30.1.0, SVG Export Plug-In . SVG Version: 2.1.1 Build 136)  -->
  <defs>
    <style>
      .st0 {
        fill: #fff;
      }

      .st1 {
        fill: #5e8e3e;
      }

      .st2 {
        fill: #95bf47;
      }
    </style>
  </defs>
  <path class="st2" d="M131.5,33.2c-.1-.9-.9-1.3-1.5-1.3s-13.7-1-13.7-1c0,0-9.1-9.1-10.2-10-1-1-2.9-.7-3.7-.5,0,0-2,.6-5.1,1.6-3.1-8.9-8.4-17-17.9-17h-.9c-2.6-3.4-6-5-8.8-5-22,0-32.6,27.5-35.9,41.5-8.6,2.7-14.7,4.5-15.4,4.8-4.8,1.5-4.9,1.6-5.5,6.1-.5,3.4-12.9,100.1-12.9,100.1l97.3,18.2,52.8-11.4c.1-.2-18.4-125.2-18.5-126.1h-.1ZM91.9,23.4c-2.4.7-5.3,1.6-8.2,2.6v-1.8c0-5.4-.7-9.8-2-13.3,5,.6,8.1,6.1,10.2,12.5h0ZM75.6,12c1.3,3.4,2.2,8.2,2.2,14.8v1c-5.4,1.7-11.1,3.4-17,5.3,3.3-12.6,9.6-18.8,14.8-21.1h0ZM69.2,5.8c1,0,2,.4,2.8,1-7.1,3.3-14.6,11.6-17.7,28.4-4.7,1.5-9.2,2.8-13.5,4.2,3.6-12.8,12.6-33.6,28.4-33.6Z"/>
  <path class="st1" d="M130,31.7c-.6,0-13.7-1-13.7-1,0,0-9.1-9.1-10.2-10-.4-.4-.9-.6-1.3-.6l-7.3,150.6,52.8-11.4s-18.5-125.2-18.6-126.1c-.4-.9-1.1-1.3-1.7-1.5h0Z"/>
  <path class="st0" d="M79.4,60.9l-6.4,19.3s-5.8-3.1-12.7-3.1c-10.3,0-10.8,6.5-10.8,8.1,0,8.8,23,12.2,23,32.9s-10.3,26.8-24.2,26.8-25.2-10.4-25.2-10.4l4.5-14.8s8.8,7.6,16.2,7.6,6.9-3.8,6.9-6.6c0-11.5-18.8-12-18.8-31s11.4-31.3,34.5-31.3c8.6,0,13,2.5,13,2.5h0Z"/>
</svg>