<?xml version="1.0" encoding="UTF-8"?>
<svg id="Layer_1" xmlns="http://www.w3.org/2000/svg" version="1.1" viewBox="0 0 125.1 101.9">
  <!-- Generator: Adobe Illustrator 30.1.0, SVG Export Plug-In . SVG Version: 2.1.1 Build 136)  -->
  <defs>
    <style>
      .st0, .st1 {
        fill-rule: evenodd;
      }

      .st1 {
        fill: #fff;
        fill-opacity: 0;
      }
    </style>
  </defs>
  <g id="squarespace-logo-horizontal-black">
    <polyline id="clear-space" class="st1" points="766 148.9 -62 148.9 -62 -47.1 766 -47.1"/>
    <g id="squarespace-logo">
      <g>
        <path id="Fill-1" class="st0" d="M26.2,53.9L65.7,13.9c2.7-2.7,6.3-4.2,10.1-4.2s7.4,1.5,10.1,4.2l3.1,3.1,6.2-6.2-3.1-3.1c-4.3-4.4-10.1-6.8-16.2-6.8s-11.9,2.4-16.2,6.8L20.2,47.7l6.2,6.2h-.2Z"/>
        <path id="Fill-3" class="st0" d="M79,27.2l-6.2-6.2-39.7,39.9c-5.6,5.6-14.6,5.6-20.2,0s-5.6-14.7,0-20.3L47.1,6.2l-6.2-6.2L6.8,34.4c-9,9-9,23.7,0,32.8,4.3,4.4,10.1,6.8,16.3,6.8s11.9-2.4,16.3-6.8l39.7-39.9h0Z"/>
        <path id="Fill-5" class="st0" d="M118.3,34.7c-4.3-4.4-10.1-6.8-16.3-6.8s-11.9,2.4-16.3,6.8l-39.7,39.9,6.2,6.2,39.7-39.9c5.6-5.6,14.6-5.6,20.2,0,2.7,2.7,4.2,6.3,4.2,10.2s-1.5,7.5-4.2,10.2l-34.2,34.4,6.2,6.2,34.2-34.4c9-9,9-23.7,0-32.8"/>
        <path id="Fill-7" class="st0" d="M98.8,47.9l-39.5,40c-5.5,5.6-14.6,5.6-20.1,0l-3.1-3.1-6.2,6.2,3.1,3.1c4.3,4.4,10.1,6.8,16.2,6.8s11.9-2.4,16.2-6.8l39.5-40-6.2-6.2h0Z"/>
      </g>
    </g>
  </g>
</svg>